<?xml version="1.0" standalone="no"?>
<!DOCTYPE svg PUBLIC "-//W3C//DTD SVG 20010904//EN"
 "http://www.w3.org/TR/2001/REC-SVG-20010904/DTD/svg10.dtd">
<svg version="1.0" xmlns="http://www.w3.org/2000/svg"
 width="512.000000pt" height="512.000000pt" viewBox="0 0 512.000000 512.000000"
 preserveAspectRatio="xMidYMid meet">

<g transform="translate(0.000000,512.000000) scale(0.100000,-0.100000)"
fill="#000000" stroke="none">
<path d="M3280 4359 c-484 -55 -923 -321 -1192 -723 -144 -216 -235 -460 -272
-729 l-5 -38 77 3 77 3 3 30 c1 17 12 74 23 129 162 783 933 1300 1731 1161
195 -34 418 -124 579 -233 630 -427 846 -1246 509 -1922 -239 -477 -721 -798
-1244 -829 -92 -5 -109 -4 -113 9 -46 138 -138 229 -275 274 -17 5 -18 25 -18
239 l0 233 45 13 c65 19 144 78 187 141 146 207 49 494 -191 570 -62 20 -90
20 -1182 20 l-1119 0 0 -75 0 -75 1118 0 c1062 0 1119 -1 1157 -19 179 -82
179 -330 0 -412 -38 -18 -103 -19 -1435 -19 -980 0 -1407 3 -1435 11 -78 21
-155 128 -155 214 0 86 77 193 155 214 23 6 127 11 243 11 l202 0 0 76 0 75
-232 -3 -233 -3 -65 -31 c-83 -39 -145 -101 -184 -184 -27 -58 -31 -75 -31
-155 0 -80 3 -97 31 -155 17 -36 51 -85 75 -109 40 -40 146 -101 177 -101 9 0
12 -54 12 -238 l0 -238 -43 -11 c-104 -28 -211 -142 -243 -260 -53 -197 68
-406 268 -459 44 -11 222 -14 1016 -14 l962 0 0 75 0 75 -972 2 -973 3 -40 22
c-133 71 -165 237 -67 345 76 84 -61 78 1523 78 l1405 0 55 -27 c137 -70 161
-258 44 -361 -64 -56 -95 -62 -324 -62 l-201 0 0 -76 0 -76 233 4 232 3 67 32
c39 18 86 51 112 78 43 43 96 137 96 168 0 18 42 27 120 27 32 0 110 9 173 20
473 80 894 371 1147 791 317 527 302 1216 -38 1739 -342 527 -955 819 -1572
749z m-270 -2629 l0 -230 -1280 0 -1280 0 0 230 0 230 1280 0 1280 0 0 -230z"/>
<path d="M600 1735 l0 -75 75 0 75 0 0 75 0 75 -75 0 -75 0 0 -75z"/>
<path d="M900 1735 l0 -75 75 0 75 0 0 75 0 75 -75 0 -75 0 0 -75z"/>
<path d="M2903 3940 c-35 -16 -63 -33 -63 -38 0 -15 61 -122 70 -122 4 0 33
12 64 26 43 19 55 30 51 42 -17 56 -44 117 -51 119 -5 1 -37 -11 -71 -27z"/>
<path d="M2628 3773 l-57 -45 46 -54 c26 -30 51 -54 55 -54 17 0 107 75 103
87 -6 18 -76 113 -83 113 -4 -1 -33 -21 -64 -47z"/>
<path d="M2410 825 l0 -75 75 0 75 0 0 75 0 75 -75 0 -75 0 0 -75z"/>
</g>
</svg>
