<svg version="1.1" id="Layer_1" xmlns="http://www.w3.org/2000/svg" xmlns:xlink="http://www.w3.org/1999/xlink" x="0px" y="0px"
	 width="100%" viewBox="0 0 512 512" enable-background="new 0 0 512 512" xml:space="preserve">
<path fill="#000000" opacity="1.000000" stroke="none" 
	d="
M460.303925,512.774658 
	C324.979095,513.000000 189.958206,513.000000 54.468658,513.000000 
	C28.700338,509.325623 12.364593,494.742706 3.198383,471.359558 
	C1.828921,467.866089 1.629318,464.256531 1.225363,460.303955 
	C1.000000,454.977905 1.000000,449.955811 1.000000,444.466858 
	C2.704785,439.218903 6.299050,437.544312 11.129924,437.595764 
	C17.460955,437.663177 23.799427,437.454956 30.124277,437.660278 
	C34.245663,437.794037 35.707817,436.192322 35.661324,432.107880 
	C35.511494,418.945374 35.605370,405.779877 35.605724,392.615540 
	C35.606998,345.457214 35.573170,298.298889 35.616112,251.140610 
	C35.654930,208.508591 69.100220,170.691528 111.511116,165.978485 
	C124.402008,164.545944 137.485352,165.749557 150.479675,165.605164 
	C156.268723,165.540848 162.066422,165.757278 167.863464,165.468826 
	C168.095261,163.127670 166.464310,162.224243 165.489487,160.998230 
	C149.422836,140.791519 144.080597,118.216095 150.002548,92.952110 
	C151.611038,86.089989 155.570572,82.305359 162.244781,80.746696 
	C176.177979,77.492805 189.982803,77.612579 203.682510,81.935265 
	C209.223282,83.683548 209.334381,83.695030 209.753220,78.143921 
	C210.966034,62.069344 214.965515,46.967152 224.787552,33.821697 
	C231.361084,25.023897 239.357880,17.843218 248.997543,12.548620 
	C253.961258,9.822297 258.882477,10.142021 263.744720,12.941698 
	C273.119080,18.339462 281.021637,25.375809 287.405731,34.104954 
	C290.416962,38.222359 290.617310,38.232037 293.409332,33.802818 
	C302.114838,19.992603 313.846191,9.834828 329.119202,3.784846 
	C333.419220,2.081511 337.859375,1.917894 342.654907,1.230446 
	C348.022095,1.000000 353.044189,1.000000 358.533142,1.000000 
	C363.801300,2.979888 366.282104,6.476989 366.200287,11.149951 
	C366.118591,15.819367 363.014252,20.248190 358.584930,21.906908 
	C356.390747,22.728592 354.098145,23.132227 351.759155,23.335733 
	C332.169586,25.040138 318.707245,35.301052 310.642029,52.966969 
	C308.102264,58.530052 308.679626,59.613129 314.506165,61.524090 
	C342.726105,70.779541 361.067657,96.149582 360.330933,125.503830 
	C360.015564,138.070618 356.256409,149.741379 349.174377,160.252991 
	C348.266846,161.600021 346.962769,162.759186 346.691956,164.837814 
	C348.208038,166.008224 350.086182,165.561691 351.802856,165.566101 
	C367.128265,165.605377 382.460968,165.890686 397.777893,165.528519 
	C433.904877,164.674301 471.284637,191.764374 480.583130,230.603760 
	C482.408264,238.227417 483.481628,245.926712 483.467285,253.837891 
	C483.362732,311.474976 483.411072,369.112366 483.411011,426.749634 
	C483.411011,428.082275 483.403656,429.415009 483.412750,430.747589 
	C483.457855,437.367004 483.625122,437.542267 490.048004,437.586914 
	C494.712036,437.619293 499.377472,437.503418 504.039948,437.648132 
	C508.013824,437.771545 511.181000,439.190765 512.769409,443.646240 
	C513.000000,449.022095 513.000000,454.044189 513.000000,459.533142 
	C509.412445,485.370911 494.649536,501.560394 471.358826,510.799713 
	C467.870270,512.183594 464.256500,512.370789 460.303925,512.774658 
z"/>
<path fill="#FFFFFF" opacity="1.000000" stroke="none" 
	d="
M342.531342,1.000000 
	C336.840088,3.423500 330.168945,4.264544 324.193146,7.314492 
	C310.283051,14.413960 299.790802,24.974628 292.110321,38.458794 
	C291.795837,39.010887 291.601807,39.631996 291.282593,40.180786 
	C291.122650,40.455761 290.806885,40.640099 290.268768,41.134388 
	C285.345886,32.003986 278.299561,24.758940 270.097748,18.723961 
	C265.766205,15.536771 261.552399,11.761620 255.466599,11.950992 
	C250.197693,12.114944 246.398331,15.369158 242.593002,18.100946 
	C225.870377,30.105827 215.852173,46.706394 212.399536,66.777237 
	C211.370575,72.758781 209.430435,79.244942 212.092239,86.146233 
	C204.853729,83.766762 198.143600,81.232079 191.014786,80.491104 
	C179.712234,79.316292 168.523376,79.538467 157.741882,83.754440 
	C154.618744,84.975716 152.820068,87.352524 152.007019,90.537979 
	C149.942062,98.628365 148.423798,106.821564 149.037857,115.196419 
	C150.284393,132.197510 155.606201,147.638031 167.084549,160.614838 
	C168.688461,162.428131 170.096176,164.414963 171.666870,166.413284 
	C170.469025,167.666260 168.912125,166.953796 167.577728,166.958832 
	C150.921371,167.021713 134.263474,166.872879 117.608452,167.034088 
	C99.257790,167.211700 83.357422,174.333969 69.183846,185.411118 
	C53.888538,197.364944 43.986923,213.002762 39.577538,231.943542 
	C38.180336,237.945297 36.952301,243.993317 36.959221,250.262878 
	C37.026905,311.559052 36.968491,372.855377 37.077984,434.151398 
	C37.084579,437.844513 36.465755,439.343140 32.335228,439.108612 
	C25.361944,438.712677 18.334919,439.276672 11.359508,438.899872 
	C6.926723,438.660400 3.987754,440.334106 1.356330,443.909302 
	C1.000000,297.748230 1.016721,151.496445 0.902461,5.244759 
	C0.899639,1.632101 1.653956,0.899464 5.250681,0.903248 
	C117.521255,1.021357 229.791977,1.000000 342.531342,1.000000 
z"/>
<path fill="#FFFFFF" opacity="1.000000" stroke="none" 
	d="
M513.000000,443.531342 
	C509.655273,439.639984 505.260651,438.390076 499.876740,438.911743 
	C495.421875,439.343353 490.861542,438.676849 486.404297,439.096161 
	C482.410431,439.471893 481.905701,437.899719 481.920532,434.388702 
	C482.055847,402.412903 482.000000,370.436279 482.000000,338.459900 
	C482.000000,309.148224 482.346283,279.831055 481.880463,250.526764 
	C481.560272,230.384323 474.778229,212.483383 461.538818,196.844482 
	C448.999451,182.032501 433.144989,173.293365 414.805237,168.428146 
	C411.219543,167.476913 407.390625,167.087387 403.669525,167.061356 
	C384.684479,166.928513 365.697937,167.017746 346.712158,166.957306 
	C345.532104,166.953552 343.833008,167.804764 343.196503,166.223801 
	C342.675812,164.930435 344.303253,164.403595 344.988525,163.549866 
	C352.096161,154.694733 356.200500,144.623795 358.073456,133.414581 
	C360.473297,119.052177 357.923065,105.684372 350.978790,93.099548 
	C342.161469,77.120308 328.696472,66.886864 311.171631,62.077538 
	C308.017059,61.211842 306.455078,60.988316 307.831482,56.797123 
	C313.294830,40.161045 324.189850,29.579350 340.660583,23.758226 
	C345.929840,21.895967 351.187195,22.350389 356.387512,21.231359 
	C361.701080,20.087971 364.022339,16.812191 364.828644,12.497997 
	C365.685303,7.914373 363.737640,3.905500 359.093475,1.348370 
	C408.796814,1.000000 458.593903,1.076046 508.389862,0.866840 
	C512.738159,0.848572 513.094421,2.116115 513.091675,5.883518 
	C512.983582,151.609848 513.000000,297.336273 513.000000,443.531342 
z"/>
<path fill="#FFFFFF" opacity="1.000000" stroke="none" 
	d="
M1.000000,460.468658 
	C3.079995,466.798065 5.025623,473.609680 8.400498,479.968262 
	C15.812226,493.932587 27.111963,503.263641 41.647820,509.043579 
	C45.572975,510.604340 49.493351,511.959961 53.865395,512.615845 
	C37.402420,513.000000 20.803915,512.911682 4.208154,513.085388 
	C1.379217,513.115051 0.897491,512.437683 0.923205,509.733459 
	C1.077854,493.469299 1.000000,477.202942 1.000000,460.468658 
z"/>
<path fill="#FFFFFF" opacity="1.000000" stroke="none" 
	d="
M460.468658,513.000000 
	C466.798096,510.920105 473.629822,509.015808 479.964203,505.591125 
	C493.820160,498.100067 503.392029,487.005402 509.049622,472.354095 
	C510.570190,468.416260 511.959900,464.506653 512.615845,460.134613 
	C513.000000,476.597565 512.911682,493.196075 513.085388,509.791840 
	C513.115051,512.620789 512.437744,513.102417 509.733459,513.076782 
	C493.469299,512.922119 477.202942,513.000000 460.468658,513.000000 
z"/>
<path fill="#FFFFFF" opacity="1.000000" stroke="none" 
	d="
M207.478561,316.801025 
	C222.131485,314.633392 232.650558,305.449402 243.699081,297.589447 
	C253.490356,290.623871 263.722595,289.242828 274.151001,296.621399 
	C282.044250,302.206207 289.542053,308.515686 298.326080,312.618713 
	C314.193726,320.030518 329.340851,317.996277 343.593567,307.950012 
	C350.704529,302.937744 357.641479,297.508270 365.300110,293.494354 
	C372.086029,289.937836 379.668427,290.574432 386.318573,294.910919 
	C394.293121,300.111023 401.738434,306.199951 409.997253,310.870758 
	C426.645447,320.286255 443.044373,318.860077 458.656403,307.897125 
	C459.048340,307.621918 459.437378,307.339142 459.851715,307.101685 
	C459.961182,307.039001 460.160126,307.132446 460.585785,307.190979 
	C461.424866,308.386322 460.975525,309.901947 460.976501,311.286224 
	C461.005463,352.285614 460.936096,393.285309 461.101288,434.284088 
	C461.117371,438.272766 460.012573,439.096954 456.202942,439.087341 
	C404.537323,438.957367 352.871277,438.999329 301.205322,439.000641 
	C291.446014,439.000916 287.251648,446.295776 291.933350,454.824585 
	C293.913849,458.432556 296.915558,459.031036 300.571686,459.028259 
	C354.404236,458.987183 408.236816,459.000000 462.069397,459.000000 
	C471.560577,459.000000 481.051758,459.000000 490.566040,459.000000 
	C488.857849,473.449982 474.619446,487.659851 459.407166,490.945953 
	C453.354706,492.253387 447.199005,493.020355 440.956329,493.019073 
	C317.458069,492.993469 193.959732,493.045319 70.461571,492.934998 
	C57.040081,492.923035 44.345692,489.729095 34.478909,479.844055 
	C28.860859,474.215576 24.684811,467.512787 23.111959,459.000000 
	C24.968637,459.000000 26.740881,459.000000 28.513126,459.000000 
	C90.012268,459.000000 151.511444,458.973663 213.010483,459.056519 
	C217.326553,459.062317 220.442719,458.014313 222.671387,453.984528 
	C225.112045,449.571442 223.894226,445.771698 221.521866,442.136627 
	C219.776199,439.461792 216.890488,438.943878 213.712357,438.951050 
	C179.046341,439.029297 144.380096,439.000000 109.713905,439.000000 
	C93.714127,439.000000 77.714073,438.952698 61.714867,439.048584 
	C59.177158,439.063782 57.914955,438.862854 57.923733,435.701935 
	C58.041718,393.202850 58.007534,350.703400 58.023273,308.204010 
	C58.023384,307.902496 58.192772,307.601074 58.391064,306.939392 
	C63.247246,309.360657 67.564728,312.587830 72.715790,314.419098 
	C88.596695,320.064880 102.523773,315.928406 115.675903,306.815643 
	C122.171318,302.315125 128.265030,297.000275 135.275436,293.545074 
	C141.993546,290.233948 149.607193,290.621002 156.295990,294.878540 
	C162.549667,298.859131 168.796631,302.897888 174.704117,307.363983 
	C184.354065,314.659454 195.122147,317.655945 207.478561,316.801025 
z"/>
<path fill="#FFFFFF" opacity="1.000000" stroke="none" 
	d="
M423.929779,193.993011 
	C436.278168,200.440094 446.200043,208.933243 452.684082,221.131500 
	C457.437225,230.073532 460.605164,239.464081 460.939392,249.596603 
	C461.230377,258.417847 460.865570,267.259521 461.077271,276.085266 
	C461.145844,278.941986 460.563202,280.868958 458.059143,282.493347 
	C452.516418,286.088959 447.478119,290.591492 441.649933,293.587921 
	C432.480835,298.302002 424.086639,295.470459 416.015137,289.674683 
	C407.544830,283.592529 399.586700,276.437775 389.490417,273.072937 
	C373.514832,267.748657 359.048248,270.995911 345.416199,280.827789 
	C338.703857,285.668945 332.416870,291.271790 324.377625,294.330353 
	C316.741882,297.235474 310.289917,295.414337 303.878754,291.396790 
	C295.964752,286.437469 288.900543,280.224854 280.541565,275.906250 
	C264.281403,267.505615 248.705734,268.709717 233.655609,278.848999 
	C227.507645,282.990875 221.183884,286.904144 215.286835,291.378387 
	C207.000687,297.665314 196.567841,296.599487 188.792297,291.376099 
	C180.906555,286.078674 173.569534,279.880768 165.052124,275.616913 
	C149.229294,267.695923 133.757599,268.809631 118.983261,278.541321 
	C112.656647,282.708557 106.298225,286.857391 100.242912,291.399445 
	C91.852043,297.693359 81.834129,296.721313 74.164520,291.618317 
	C68.794441,288.045258 61.444698,285.431030 58.774220,280.381531 
	C56.078846,275.284943 58.018578,267.712616 58.011993,261.224823 
	C58.004169,253.514816 57.992626,245.879700 59.731159,238.196854 
	C60.530247,234.665573 61.958763,234.999542 64.204063,234.999588 
	C92.529396,235.000214 120.854897,234.949249 149.179886,235.047318 
	C154.213776,235.064743 157.486923,232.525253 158.747253,228.231445 
	C160.051041,223.789551 159.048889,219.304321 154.839233,216.376999 
	C153.073517,215.149155 150.968536,214.947174 148.755692,214.953918 
	C124.596069,215.027527 100.436150,215.000000 76.276306,215.000000 
	C74.630302,215.000000 72.984299,215.000000 70.851509,215.000000 
	C73.830917,208.040817 79.411552,203.980957 84.848000,200.105774 
	C95.417267,192.571823 107.115196,188.543991 120.381363,187.712967 
	C130.663330,187.068863 140.901245,187.078735 151.145935,187.063889 
	C230.956543,186.948303 310.767761,186.884842 390.577759,187.130814 
	C401.851135,187.165573 413.286346,188.169098 423.929779,193.993011 
z"/>
<path fill="#FFFFFF" opacity="1.000000" stroke="none" 
	d="
M333.776031,141.600616 
	C325.934967,156.061493 314.655273,164.823669 298.201691,166.004471 
	C280.252502,167.292618 267.021118,159.521576 258.145630,144.371292 
	C249.564346,129.723251 250.587753,114.643997 259.324860,100.628975 
	C265.367310,90.936417 274.691040,84.523506 286.114655,82.064949 
	C301.055481,78.849442 314.181122,83.058090 324.905182,93.563240 
	C337.029877,105.440422 341.839111,123.278427 333.776031,141.600616 
z"/>
<path fill="#FFFFFF" opacity="1.000000" stroke="none" 
	d="
M171.014282,122.676880 
	C170.260315,117.527672 169.569656,112.791489 170.033539,108.025879 
	C170.673431,101.452164 172.174606,101.093796 177.306808,100.926109 
	C194.328766,100.369942 208.988556,105.734543 220.604584,118.223679 
	C228.791046,127.025482 233.831238,137.454681 235.141937,149.672272 
	C235.562531,153.592911 235.408386,157.297668 235.255219,161.169724 
	C235.082199,165.543900 233.711273,165.998276 229.866409,166.125961 
	C217.747589,166.528488 206.386459,164.695404 195.922531,158.049484 
	C183.438492,150.120575 175.466934,139.139771 171.942215,124.835831 
	C171.791611,124.224686 171.338776,123.688019 171.014282,122.676880 
z"/>
<path fill="#FFFFFF" opacity="1.000000" stroke="none" 
	d="
M271.295898,50.795471 
	C271.943481,51.765556 272.282745,52.496109 272.697479,53.180996 
	C274.279327,55.793449 276.143311,58.631401 275.988739,61.526695 
	C275.815399,64.774055 271.891937,63.885094 269.730835,64.932159 
	C256.829803,71.182755 246.356003,80.043221 239.206863,92.551353 
	C238.123459,94.446907 236.758972,96.361465 236.798447,99.075249 
	C233.993240,96.793922 234.153793,93.717728 233.582016,91.063683 
	C230.205200,75.389107 233.616486,61.047363 242.584366,47.941929 
	C245.740555,43.329578 249.584946,39.373383 254.224670,36.126274 
	C255.851593,34.987656 256.412994,35.263283 257.882385,36.256001 
	C263.422241,39.998730 267.558105,44.934147 271.295898,50.795471 
z"/>
<path fill="#000000" opacity="1.000000" stroke="none" 
	d="
M263.951935,457.001404 
	C260.048096,460.501678 255.675400,459.644135 252.051041,458.264404 
	C248.047394,456.740265 246.804794,452.929321 246.840393,448.372711 
	C246.874634,443.991821 249.068420,441.432831 252.190125,439.422546 
	C254.970383,437.632172 262.851654,439.322113 264.961334,441.718353 
	C267.519501,444.623993 267.856262,451.547638 265.613983,454.935822 
	C265.177399,455.595459 264.781311,456.281891 263.951935,457.001404 
z"/>
<path fill="#000000" opacity="1.000000" stroke="none" 
	d="
M192.583466,233.907959 
	C182.148926,237.739243 176.151932,231.551529 176.939285,223.665421 
	C177.344696,219.604568 180.222748,215.531601 183.778900,215.003601 
	C190.195633,214.050888 195.628433,216.566757 196.971436,221.235718 
	C198.685562,227.194885 196.420319,231.387192 192.583466,233.907959 
z"/>
</svg>