<svg version="1.1" id="Layer_1" xmlns="http://www.w3.org/2000/svg" xmlns:xlink="http://www.w3.org/1999/xlink" x="0px" y="0px"
	 width="100%" viewBox="0 0 512 512" enable-background="new 0 0 512 512" xml:space="preserve">
<path fill="#FFFFFF" opacity="1.000000" stroke="none" 
	d="
M1.391440,374.038879 
	C1.000000,251.209335 1.015641,128.418640 0.920896,5.628047 
	C0.918187,2.116645 1.333314,0.885015 5.368975,0.888155 
	C173.143906,1.018682 340.918976,1.012032 508.693939,0.915998 
	C512.142761,0.914023 513.113342,1.427575 513.109253,5.191180 
	C512.976868,127.814911 513.000000,250.438812 513.000000,373.531342 
	C510.603912,374.096069 510.701508,371.962067 510.106720,370.597351 
	C505.425537,359.856689 497.655304,353.063812 485.717224,352.157135 
	C478.899231,351.639282 474.398804,348.859253 470.527618,342.943787 
	C463.353241,331.980835 454.420746,322.327820 444.996216,313.161560 
	C441.558319,309.817780 438.025024,309.899231 433.660248,311.373108 
	C428.945404,308.474121 424.786743,305.339447 421.433899,300.779694 
	C422.401825,294.773987 420.306732,290.781616 415.284241,288.024445 
	C411.300476,285.837494 408.730103,282.767853 408.708344,277.707489 
	C408.689148,273.244019 406.291931,269.394440 403.455078,266.064240 
	C394.619751,255.692276 383.649902,248.871384 370.043701,246.707886 
	C363.397461,245.651062 357.030457,246.231781 351.638885,250.790726 
	C349.206146,252.847778 346.677948,253.139557 343.740906,252.137131 
	C325.060364,245.761429 305.808472,241.941696 286.237671,239.755646 
	C270.003204,237.942276 253.737930,237.825851 237.413101,239.016190 
	C223.095276,240.060211 208.983536,242.152618 194.942825,245.028168 
	C188.228180,246.403305 181.779724,248.643478 175.218765,250.510406 
	C171.645752,251.527100 168.549240,251.593552 165.306976,249.334671 
	C160.206131,245.780930 154.217255,245.531342 148.447601,246.701172 
	C135.204437,249.386353 123.648247,255.230286 115.135986,266.180634 
	C112.957520,268.983063 111.123520,271.952911 110.321510,275.405792 
	C109.398590,279.379242 107.161156,282.157074 103.808823,284.442749 
	C78.926308,301.407959 57.770626,322.177002 40.629341,346.967590 
	C38.654335,349.823975 36.178410,351.249420 32.752968,351.434204 
	C22.249992,352.000885 13.423333,355.800690 6.974162,364.533905 
	C4.771039,367.517303 4.657220,371.531830 1.391440,374.038879 
z"/>
<path fill="#020201" opacity="1.000000" stroke="none" 
	d="
M432.887848,311.364136 
	C436.988281,307.952515 441.524475,308.043945 444.949005,311.407379 
	C456.179779,322.437958 466.823059,333.961609 475.050903,347.493561 
	C477.645111,351.760071 482.308624,350.176361 485.809082,350.752411 
	C500.005035,353.088531 508.824890,360.280579 512.633789,373.884125 
	C513.000000,381.687592 513.000000,389.375153 513.000000,397.531372 
	C509.921448,416.673950 498.507324,428.014832 481.185944,434.153992 
	C480.243561,434.488007 479.258759,434.996155 478.300476,434.917206 
	C471.117859,434.325745 467.849213,439.082214 464.289398,444.242004 
	C454.825836,457.959045 445.594299,471.835480 436.313171,485.669861 
	C431.231018,493.245300 424.474945,496.769501 415.900177,497.161316 
	C406.250092,497.602264 396.565796,497.557861 386.910492,497.162933 
	C379.345001,496.853485 376.197205,494.040009 375.150574,487.133911 
	C377.457336,480.390411 379.639435,478.636353 386.086731,478.507080 
	C394.740906,478.333588 403.399139,478.507477 412.055084,478.435425 
	C418.340393,478.383118 422.740234,475.136261 424.852417,469.302307 
	C425.485931,467.552612 424.989502,466.784027 423.250244,466.627930 
	C421.589600,466.478943 419.922791,466.550964 418.258820,466.550873 
	C348.008881,466.547729 277.758942,466.549835 207.509003,466.543335 
	C204.681702,466.543060 201.834137,466.719238 199.041977,466.155853 
	C194.844742,465.308960 191.541565,463.390167 190.682434,458.282745 
	C191.489136,451.184967 193.726105,448.999481 200.118576,448.645569 
	C202.280609,448.525848 204.448029,448.590607 206.613037,448.590576 
	C281.227509,448.589081 355.842163,448.514130 430.456055,448.722656 
	C436.892090,448.740631 441.401550,447.064880 444.156281,441.233063 
	C444.296997,440.935181 444.520905,440.676605 444.705841,440.399536 
	C450.432770,431.819946 449.781982,429.855469 440.203613,425.649445 
	C437.305145,424.376709 435.448273,426.040649 433.396759,427.399689 
	C421.446991,435.315765 408.625732,437.615051 394.804077,433.382141 
	C390.152771,431.957672 385.756409,429.882538 381.871155,426.995026 
	C379.013977,424.871521 376.733765,424.906799 373.779175,426.869873 
	C356.427551,438.398590 338.943970,438.722260 321.552704,426.916046 
	C318.891785,425.109650 316.604187,424.799408 313.793030,426.650085 
	C295.877655,438.444153 277.949127,438.606567 260.178680,426.316803 
	C257.939972,424.768555 256.165436,424.696075 253.880783,426.280518 
	C236.134811,438.587891 218.203705,438.488373 200.279419,426.681824 
	C197.493820,424.846924 195.230438,424.993317 192.537170,426.839722 
	C175.184509,438.736145 157.688705,438.401855 140.317535,426.941101 
	C137.137863,424.843292 134.880615,425.195892 131.800934,427.209412 
	C119.945908,434.960449 107.174995,437.917358 92.894760,433.266632 
	C87.790665,431.486664 83.294250,429.360748 79.281929,426.340942 
	C76.962181,424.595001 74.775864,424.538940 72.471405,426.300507 
	C71.286499,427.206207 70.083153,428.093933 68.819237,428.894745 
	C63.461094,432.289551 64.065750,432.160034 66.858139,437.570709 
	C71.716431,446.984436 78.894814,450.233246 89.099075,448.810638 
	C93.824181,448.151886 98.710762,448.781189 103.947510,448.552032 
	C121.445312,448.368591 138.518555,448.394562 155.590897,448.491791 
	C162.407700,448.530609 164.340012,450.013458 166.308502,456.333191 
	C165.730545,462.791870 163.094940,465.550018 156.915741,466.289154 
	C152.127045,466.861969 147.296463,466.519379 142.484970,466.534424 
	C133.852829,466.561401 125.220375,466.581055 116.145401,466.486237 
	C107.723595,466.429352 99.744156,466.467987 91.765587,466.412048 
	C88.123215,466.386536 87.974358,467.540680 89.623604,470.517670 
	C92.833641,476.312103 97.032845,479.357605 104.070831,478.696686 
	C110.331696,478.108765 116.692711,478.560699 123.459793,478.533264 
	C159.841141,478.259003 195.772614,478.434875 231.703888,478.403595 
	C268.135345,478.371826 304.566864,478.368652 340.998291,478.416229 
	C349.096008,478.426788 351.122101,479.752655 353.828308,486.699951 
	C353.328461,492.776276 351.277771,495.255737 346.077942,496.672272 
	C343.477600,497.380646 340.817627,497.456329 338.148468,497.456543 
	C259.379150,497.463379 180.609833,497.448822 101.840515,497.471893 
	C91.139771,497.475037 82.834213,493.988770 76.623306,484.436615 
	C67.281082,470.068665 57.643066,455.868286 47.844193,441.789490 
	C45.187321,437.972168 42.226196,435.776001 37.409184,435.209076 
	C23.596542,433.583282 2.788330,419.284698 1.227759,398.380493 
	C1.000000,390.312408 1.000000,382.624847 1.000000,374.468628 
	C3.536860,368.461365 5.877746,363.028381 10.579572,358.580078 
	C17.254335,352.265289 25.245441,350.727264 33.695953,350.090912 
	C35.898094,349.925079 37.647255,349.472137 38.740139,347.678772 
	C49.199787,330.515015 63.396523,316.568054 77.788879,302.880371 
	C86.014549,295.057465 95.391808,288.517883 104.763359,282.085785 
	C106.478081,280.908905 107.558769,279.900909 108.119766,277.736450 
	C110.804543,267.377777 117.178185,259.736115 126.260330,254.228775 
	C135.359375,248.711182 144.790970,244.470001 155.826385,244.921722 
	C160.071838,245.095505 164.045593,246.252335 167.008499,248.828400 
	C169.224915,250.755371 171.314362,250.517685 173.063248,249.856323 
	C185.621552,245.107040 198.816910,242.929550 211.842316,240.182541 
	C218.675446,238.741486 225.805984,238.738892 232.790894,237.982208 
	C242.017029,236.982666 251.265701,236.940659 260.530334,236.972458 
	C279.863647,237.038834 298.836609,239.614212 317.723877,243.753433 
	C327.176910,245.825104 336.390533,248.530243 345.602203,251.332230 
	C347.170868,251.809341 348.233185,252.314621 349.514313,250.977203 
	C357.037201,243.124100 366.488373,243.826324 375.510284,246.389282 
	C389.102295,250.250534 400.451996,257.771240 407.925507,270.319397 
	C408.952637,272.044067 410.007904,274.040192 409.845673,275.613190 
	C409.118835,282.661377 413.743591,285.794861 418.634521,288.959229 
	C423.275085,291.961609 424.059601,294.690369 421.972656,300.455780 
	C418.190338,305.123535 414.574890,306.344971 410.259094,303.153931 
	C403.616852,298.242737 396.559753,297.541107 388.535797,296.969147 
	C372.144867,295.800842 359.104706,287.200897 349.541626,273.795013 
	C347.604187,271.079071 345.572479,269.127289 342.396240,268.046753 
	C319.275909,260.181366 295.587006,255.756348 271.171448,254.068771 
	C259.122101,253.235916 247.286087,255.127151 234.952255,254.436523 
	C222.518311,256.015503 210.484085,257.502686 198.615555,260.230743 
	C191.459793,261.875610 184.481918,264.041595 177.443008,266.046814 
	C174.399582,266.913788 172.330551,268.650970 170.636673,271.415375 
	C161.623001,286.125458 148.050186,294.072754 131.362213,297.055054 
	C127.581985,297.730621 123.714790,297.490051 120.001534,296.238403 
	C117.433044,295.372681 115.110794,295.827301 112.899956,297.346161 
	C92.864525,311.110657 74.979820,327.160706 60.377522,346.704193 
	C59.887257,347.360321 59.309479,348.001373 59.606743,349.733429 
	C72.189117,349.218414 84.910683,350.686432 98.050125,348.690826 
	C107.333015,347.562988 116.089294,349.447693 124.915268,349.437134 
	C179.394241,349.371948 233.873337,349.403503 288.352386,349.400269 
	C293.680359,349.399933 298.890289,349.547943 301.129913,356.255432 
	C301.101685,363.588959 298.138092,366.810791 291.417603,367.308411 
	C289.256317,367.468445 287.086334,367.388184 284.920197,367.388245 
	C202.430328,367.390259 119.940445,367.389465 37.450569,367.391785 
	C35.284489,367.391846 33.114120,367.303131 30.953266,367.467560 
	C25.019960,367.919067 19.555918,372.003845 18.176300,377.784882 
	C15.159777,390.425171 19.587336,408.606201 34.371536,415.142853 
	C43.730629,419.280823 52.505722,418.282562 60.981152,412.844727 
	C63.787609,411.044128 64.641289,408.717712 63.335491,405.582703 
	C62.567066,403.737885 61.927216,401.829193 61.845001,399.799774 
	C61.688465,395.935852 63.042004,392.830048 66.820335,391.427338 
	C70.541855,390.045715 74.051590,390.492889 76.831688,393.694885 
	C78.614006,395.747681 79.506798,398.278748 80.626144,400.696289 
	C87.410027,415.347839 102.970192,421.432098 117.402489,415.104645 
	C123.924782,412.245148 124.958191,409.934723 122.774300,403.057770 
	C122.370140,401.785095 121.975555,400.512512 121.860756,399.173920 
	C121.471008,394.629211 123.557030,391.368927 127.792534,389.896454 
	C131.741455,388.523560 135.823334,390.016235 138.146133,393.733215 
	C139.394089,395.730194 139.913620,398.042419 140.814667,400.190613 
	C147.547607,416.242767 166.268906,422.396912 180.787704,413.437195 
	C184.075912,411.407990 185.732712,409.164215 183.878586,405.273712 
	C183.022141,403.476654 182.603729,401.481842 182.251556,399.511383 
	C181.335815,394.387726 183.955704,389.828735 188.544113,388.477173 
	C192.715561,387.248474 196.921387,389.373108 198.850937,394.189453 
	C200.966858,399.470917 203.040604,404.667664 207.019684,408.941284 
	C215.692978,418.256653 230.405624,420.351807 240.874557,413.714752 
	C244.253159,411.572845 245.934296,409.106110 244.215897,405.006958 
	C243.187943,402.554749 242.685120,399.899414 242.697693,397.196259 
	C242.718506,392.719452 245.229874,389.170288 249.229721,388.269897 
	C253.416458,387.327423 256.284698,389.466858 258.458862,392.733795 
	C259.760620,394.689911 260.218414,397.042755 261.105499,399.196960 
	C267.619995,415.016846 283.816223,421.757172 298.857605,414.909424 
	C305.360687,411.948883 306.164001,410.170135 304.029114,403.461243 
	C303.624390,402.189423 303.271973,400.902069 303.054901,399.585327 
	C302.172546,394.232880 304.246307,390.169891 308.624634,388.635559 
	C312.864777,387.149628 317.145538,389.186462 319.424408,394.297668 
	C321.457672,398.858124 323.101257,403.532166 326.348938,407.499298 
	C335.048187,418.125702 350.331757,420.699188 362.002533,413.502441 
	C365.390167,411.413452 366.597473,408.970673 365.110657,405.185730 
	C364.261047,403.022827 363.442841,400.809723 363.130768,398.485565 
	C362.583496,394.409698 365.289886,390.119751 369.260925,388.621246 
	C372.784393,387.291687 376.750946,388.845306 379.131378,392.496826 
	C380.516998,394.622437 381.034546,397.102386 381.959442,399.417175 
	C386.884766,411.743774 402.281281,422.721375 418.956787,415.235077 
	C425.903503,412.116425 426.860138,410.074005 424.663605,402.868286 
	C424.031647,400.795074 423.348267,398.726135 423.108551,396.566772 
	C422.574707,391.757690 425.473480,387.496338 429.999451,386.319366 
	C433.890228,385.307556 437.545593,387.276764 439.629486,391.606262 
	C440.860626,394.164124 441.462189,396.966705 442.548004,399.583130 
	C447.147675,410.666565 455.529999,416.873230 467.415314,417.473541 
	C479.279510,418.072815 487.720551,412.228027 493.045166,401.753235 
	C496.571106,394.816925 497.335175,387.400696 496.277100,379.835419 
	C495.201111,372.142120 489.151947,367.417633 480.667450,367.407410 
	C446.005096,367.365601 411.342682,367.394775 376.680267,367.388550 
	C361.848785,367.385895 347.016815,367.467743 332.185974,367.349243 
	C324.998749,367.291840 322.108917,365.018524 320.241180,358.034363 
	C322.483154,351.106262 324.763519,349.563416 332.694275,349.554840 
	C367.112457,349.517639 401.530670,349.541962 435.948883,349.538788 
	C440.604492,349.538330 445.260925,349.588806 449.915222,349.508209 
	C451.321075,349.483887 453.228851,350.150177 453.954407,348.539001 
	C454.543518,347.230804 453.019745,346.188171 452.258667,345.151093 
	C447.032654,338.029510 441.046906,331.582947 434.847229,325.300781 
	C430.037750,320.427307 429.561859,316.645935 432.887848,311.364136 
z"/>
<path fill="#FFFFFF" opacity="1.000000" stroke="none" 
	d="
M375.547180,487.696350 
	C378.383545,495.589783 380.466034,495.359650 387.022766,495.827179 
	C396.626434,496.511932 406.329926,496.331909 415.963104,495.900452 
	C423.817535,495.548706 430.412720,492.584259 435.046234,485.436005 
	C445.548218,469.234558 456.474304,453.307129 467.307678,437.322296 
	C468.715668,435.244781 470.831482,434.091553 473.529541,433.976349 
	C490.169403,433.265930 506.871368,418.991577 511.021118,402.389343 
	C511.370453,400.991760 511.842316,399.624786 512.628662,398.121796 
	C513.000000,435.144745 512.966370,472.289551 513.067505,509.434021 
	C513.075134,512.225891 512.742004,513.097351 509.569855,513.095337 
	C341.169342,512.987488 172.768738,512.985107 4.368254,513.107239 
	C1.018959,513.109680 0.943264,511.993835 0.948650,509.372223 
	C1.024276,472.560699 1.000000,435.748993 1.000000,398.468658 
	C3.011123,402.778381 4.483951,407.881836 7.135828,412.273285 
	C14.635488,424.692566 25.381104,432.628021 40.241497,433.963196 
	C43.256630,434.234131 45.339264,435.461365 47.022335,437.969818 
	C58.334991,454.830139 69.606834,471.720612 81.167854,488.410156 
	C85.192436,494.220062 91.858643,495.890228 98.379189,495.902618 
	C179.496674,496.056702 260.614563,496.017212 341.732300,495.970734 
	C346.871582,495.967804 351.354797,494.472382 353.051941,488.409271 
	C355.082947,486.041809 357.670715,486.391693 360.066620,486.475311 
	C365.111938,486.651398 370.238098,485.615265 375.547180,487.696350 
z"/>
<path fill="#F6C26D" opacity="1.000000" stroke="none" 
	d="
M233.698486,253.668243 
	C272.264130,249.959412 309.404236,254.820618 345.573151,267.563019 
	C347.757050,268.332397 348.581665,269.875885 349.673584,271.532562 
	C359.699280,286.743988 373.913116,295.564667 392.022064,295.592865 
	C398.939758,295.603607 404.042358,296.985352 409.002808,301.079987 
	C413.071564,304.438538 417.179413,304.123627 421.590454,300.918091 
	C425.583282,304.117645 429.819672,306.697113 433.105713,310.862122 
	C430.564270,316.122253 431.681519,320.203613 435.647888,324.092743 
	C443.825317,332.110870 451.285400,340.771423 458.535004,350.927460 
	C456.063721,350.927460 454.336578,350.927460 452.609436,350.927460 
	C412.332275,350.927490 372.054993,350.971008 331.778046,350.872620 
	C326.733826,350.860321 322.955963,352.114258 321.308990,357.689514 
	C314.568817,360.816254 307.869995,359.727295 300.811676,358.330200 
	C298.715454,352.027527 297.098053,350.932526 289.794647,350.930908 
	C225.703415,350.916748 161.612198,350.910858 97.027740,350.840515 
	C95.475067,348.110229 97.288795,346.313141 98.633064,344.527832 
	C116.673576,320.568573 138.063797,300.206146 163.612320,284.352356 
	C166.711288,282.429352 169.625443,280.193207 172.969025,278.675507 
	C174.761581,277.861847 176.493179,276.696228 178.910019,277.748779 
	C179.240204,281.320770 176.432205,282.754547 174.534836,284.686676 
	C168.217285,291.119904 163.464661,298.336273 161.918961,307.414734 
	C160.081879,318.204498 167.443878,326.087891 178.375168,324.916565 
	C188.962265,323.782104 196.930206,317.662415 203.845810,310.414703 
	C209.786697,304.188538 214.886444,297.202789 216.249573,288.100952 
	C217.795288,277.779938 212.614746,270.855591 202.208160,270.253998 
	C200.879700,270.177216 199.541809,270.194244 198.025848,269.314880 
	C196.979996,265.723267 199.784836,265.168243 201.757629,264.374420 
	C211.298477,260.535309 220.716278,256.284210 231.002380,254.671570 
	C231.819458,254.543472 232.568390,254.123718 233.698486,253.668243 
z"/>
<path fill="#000000" opacity="1.000000" stroke="none" 
	d="
M174.061401,21.974117 
	C182.418030,18.570187 190.842102,18.012794 199.307281,18.050947 
	C204.537170,18.074516 209.830353,17.272871 214.992996,18.994875 
	C219.703049,20.565910 220.510223,24.198751 219.941727,28.353350 
	C219.395279,32.346928 216.762131,33.939465 212.758896,34.048794 
	C204.683121,34.269348 196.637466,33.758945 188.517136,34.849300 
	C173.708496,36.837711 163.694412,46.658733 161.094879,59.698227 
	C157.378876,78.338013 169.144577,92.208260 184.014374,96.403931 
	C188.191315,97.582504 192.719711,97.891113 197.093124,97.931839 
	C214.742630,98.096252 232.394577,97.991974 250.045624,98.005554 
	C254.551025,98.009018 257.929962,101.174088 257.999542,105.376396 
	C258.069855,109.624199 254.718323,112.988052 250.292831,112.991791 
	C228.811859,113.009964 207.318954,113.429726 185.854446,112.835045 
	C173.445755,112.491264 163.380371,105.902832 155.397293,96.714050 
	C148.106094,88.321648 144.226425,78.023186 144.186768,67.047867 
	C144.132217,51.957787 149.842194,38.855564 161.742752,29.115761 
	C165.284058,26.217445 169.662430,24.341898 174.061401,21.974117 
z"/>
<path fill="#000000" opacity="1.000000" stroke="none" 
	d="
M348.299255,97.799530 
	C342.534424,89.491142 334.731781,85.441711 325.174652,85.067696 
	C316.863770,84.742462 308.529755,84.955399 300.206543,85.014397 
	C293.815247,85.059692 287.777771,79.954216 291.662018,72.645424 
	C293.124359,69.893784 295.104523,68.995430 297.906830,68.997314 
	C308.228119,69.004250 318.627869,68.203629 328.849884,69.210876 
	C340.433197,70.352287 350.395355,75.317528 358.416931,84.560036 
	C365.849792,93.124298 369.463440,103.008545 369.713593,113.667786 
	C369.946960,123.612961 367.364258,133.390747 360.868835,141.693314 
	C350.978485,154.335281 338.211731,160.523056 322.153931,160.023209 
	C317.330902,159.873077 312.487152,159.787109 307.675018,160.060883 
	C303.016907,160.325867 300.920380,157.313019 300.179260,153.807159 
	C299.368713,149.972641 301.072510,146.525040 305.149200,145.032028 
	C310.583130,143.041962 316.274323,143.901230 321.811859,144.091019 
	C335.085785,144.546005 344.933838,138.804672 350.699036,127.321320 
	C355.591400,117.576347 354.725647,107.418884 348.299255,97.799530 
z"/>
<path fill="#000000" opacity="1.000000" stroke="none" 
	d="
M225.070435,208.744278 
	C222.430222,212.756989 218.723267,212.463547 215.199692,211.641602 
	C211.190277,210.706360 210.244690,206.887558 210.137115,203.664963 
	C209.749161,192.042419 208.754410,180.098785 213.187820,169.118195 
	C218.327362,156.388748 229.217270,146.851974 244.443054,144.854874 
	C253.060013,143.724625 261.609375,144.195251 270.184723,144.083847 
	C274.291656,144.030457 277.951996,145.487381 279.540283,149.978149 
	C280.752899,153.406815 279.403870,155.894989 277.205811,158.386032 
	C275.781982,159.999634 274.152222,160.026947 272.305786,160.016052 
	C265.478180,159.975708 258.647156,159.868881 251.823029,160.028488 
	C239.318481,160.320969 228.542007,167.957458 226.793411,181.383377 
	C225.841904,188.689087 226.520966,195.895920 225.973923,203.122391 
	C225.842072,204.864365 226.741257,206.801590 225.070435,208.744278 
z"/>
<path fill="#F5AC38" opacity="1.000000" stroke="none" 
	d="
M300.406342,358.388672 
	C307.027802,358.004089 313.604218,358.007904 320.658539,358.001465 
	C323.402771,364.753448 325.031067,365.929016 332.378632,365.930206 
	C381.035767,365.938080 429.696289,366.253265 478.347992,365.739075 
	C492.858154,365.585724 498.612427,374.390137 498.137085,385.931213 
	C497.559052,399.967163 492.551117,411.009155 479.364380,416.852936 
	C463.931671,423.692017 445.710632,414.789520 440.508118,398.395111 
	C439.854462,396.335266 439.481720,394.162170 438.624420,392.196106 
	C436.963135,388.386292 434.025085,386.472565 429.817963,387.665466 
	C425.683197,388.837860 423.801147,391.957642 424.446014,396.051422 
	C424.983826,399.465515 425.858459,402.991241 427.425415,406.034241 
	C429.139526,409.363159 428.026398,411.061249 425.542725,413.073639 
	C410.426117,425.321960 386.889740,418.039795 380.240173,398.989685 
	C379.584076,397.110077 379.072754,395.149017 378.168732,393.393341 
	C376.411072,389.979858 373.427338,388.768799 369.790588,389.803162 
	C365.902588,390.908936 363.928894,393.814087 364.479797,397.728821 
	C364.913605,400.811279 365.905487,403.928314 367.259521,406.735748 
	C368.565735,409.444061 367.786591,410.867523 365.727936,412.611328 
	C350.812378,425.245392 326.945007,418.521912 320.103455,399.679443 
	C319.423828,397.807617 318.935913,395.852112 318.106750,394.051605 
	C316.326965,390.186920 313.256195,388.594177 309.138702,389.891693 
	C304.992188,391.198334 303.425842,394.426392 304.154419,398.495819 
	C304.646515,401.244354 305.522491,404.040222 306.825897,406.497040 
	C308.342896,409.356445 307.409271,410.870850 305.195312,412.707184 
	C290.063965,425.257568 266.548920,418.466797 259.725739,399.493561 
	C258.995117,397.461945 258.464813,395.318817 257.452667,393.436584 
	C255.676132,390.132843 252.768997,388.727203 249.066269,389.773499 
	C245.404282,390.808197 243.578598,393.367035 243.733536,397.211029 
	C243.863083,400.424866 244.762131,403.542297 246.270111,406.272827 
	C247.962189,409.336670 246.908401,411.020630 244.570053,412.942841 
	C229.524704,425.310791 205.780640,418.159363 199.166901,399.198517 
	C198.619888,397.630249 198.255997,395.987946 197.598801,394.470215 
	C195.779465,390.268768 192.287491,388.567413 188.365738,389.842865 
	C184.532211,391.089630 182.488708,394.753784 183.474182,398.965790 
	C184.002182,401.222595 184.461792,403.641998 185.638000,405.569611 
	C187.974182,409.398224 186.265762,411.518555 183.252289,413.687012 
	C167.820618,424.791443 145.954224,418.041260 139.086868,399.988556 
	C138.437729,398.282135 137.927567,396.509460 137.133011,394.874420 
	C135.239563,390.978088 131.977325,389.653839 128.003738,391.027863 
	C123.962135,392.425354 122.484489,395.695374 123.279121,399.799225 
	C123.686424,401.902771 124.235229,404.144196 125.368103,405.906769 
	C127.566673,409.327332 125.994331,411.200928 123.385223,413.260437 
	C108.636078,424.902771 86.419136,418.594574 78.991104,400.588562 
	C78.294395,398.899719 77.734291,397.134491 76.858521,395.543579 
	C74.883095,391.955048 71.655586,390.864960 67.925621,392.078918 
	C64.062286,393.336304 62.595490,396.415649 63.119022,400.347809 
	C63.313633,401.809509 63.631027,403.427612 64.433563,404.605804 
	C67.945320,409.761261 64.861809,412.276428 60.821236,414.736816 
	C43.556705,425.249512 22.064426,415.961060 17.011173,395.740051 
	C15.700204,390.494141 15.655765,385.131653 16.187372,379.833496 
	C17.024178,371.493652 23.509762,365.971191 32.253895,365.955048 
	C60.248322,365.903351 88.242905,365.934509 116.237427,365.934387 
	C174.059448,365.934113 231.881470,365.937744 289.703491,365.929840 
	C296.841095,365.928864 298.785187,364.595276 300.406342,358.388672 
z"/>
<path fill="#9495B8" opacity="1.000000" stroke="none" 
	d="
M91.789932,432.305054 
	C104.388382,435.460419 116.833466,435.528107 127.493820,427.979218 
	C134.283188,423.171448 138.405838,423.998199 145.223511,428.090912 
	C161.526321,437.877686 178.040848,436.001648 193.241302,424.611145 
	C195.840118,422.663727 197.380920,422.584381 199.964569,424.586761 
	C216.551819,437.442200 237.285614,437.384735 253.878021,424.429840 
	C256.350342,422.499542 257.762054,422.599030 260.164948,424.487305 
	C276.571564,437.380188 297.440826,437.413910 314.083801,424.540283 
	C316.724518,422.497681 318.278381,422.713348 320.805908,424.661255 
	C337.264221,437.345093 358.008240,437.361938 374.344818,424.686005 
	C376.897980,422.704926 378.443604,422.514038 381.077209,424.561737 
	C397.639374,437.439148 418.123322,437.382751 434.985535,424.451630 
	C437.425903,422.580231 439.097382,422.367432 441.338135,424.520569 
	C443.497589,426.595612 446.027679,428.305237 448.872833,429.326447 
	C452.512939,430.633057 451.608795,432.151337 450.235382,435.095734 
	C444.641510,447.088409 436.023132,450.296814 422.672760,450.148682 
	C349.362152,449.335236 276.037781,449.758514 202.718155,449.763458 
	C194.848495,449.763977 193.584534,450.540588 191.517578,456.716553 
	C189.727844,458.612305 187.661255,458.553894 185.699707,458.470734 
	C179.260590,458.197632 172.759521,459.375763 166.023315,457.370178 
	C164.540878,451.592346 161.085175,449.653809 155.650436,449.699982 
	C138.425049,449.846405 121.197380,449.723419 103.516617,449.605988 
	C97.679436,444.928467 93.905052,439.257019 91.789932,432.305054 
z"/>
<path fill="#B2B4CE" opacity="1.000000" stroke="none" 
	d="
M165.505341,457.418121 
	C173.940094,457.051361 182.214737,457.040436 190.912079,457.047974 
	C193.284164,463.488586 195.112411,464.748840 202.729706,464.749542 
	C276.180511,464.756500 349.631287,464.749084 423.082092,464.779785 
	C424.997162,464.780579 426.998535,464.293945 429.421082,465.491058 
	C426.478119,469.845093 423.678925,474.087799 420.765533,478.250610 
	C419.458649,480.117950 417.375732,480.028412 415.340607,480.021667 
	C405.680542,479.989685 396.020142,479.978119 386.360107,480.018341 
	C379.994781,480.044830 378.209900,481.425140 376.136932,487.759735 
	C368.608978,488.037170 361.315552,488.035248 353.559753,488.037292 
	C350.098907,480.652924 349.127380,480.010254 340.867645,480.008484 
	C268.560699,479.992920 196.253723,479.979126 123.485176,479.888123 
	C119.730827,475.330261 115.096153,471.647034 114.764267,465.245148 
	C128.529770,464.884338 142.067719,464.822235 155.605637,464.751312 
	C160.492706,464.725708 164.464294,463.401581 165.505341,457.418121 
z"/>
<path fill="#DCAD62" opacity="1.000000" stroke="none" 
	d="
M233.651123,253.447906 
	C233.039856,255.678192 230.815338,255.461166 229.019119,255.973862 
	C219.515320,258.686523 210.280746,262.142334 201.173965,265.950958 
	C200.004974,266.439850 198.625839,266.799561 198.057846,268.576294 
	C192.205582,272.367004 185.946960,274.927368 179.665665,278.117737 
	C173.044830,278.256531 168.760696,282.607880 163.938217,285.613800 
	C138.225021,301.641388 116.633362,322.145508 98.719643,346.548431 
	C97.949081,347.598114 97.437668,348.838074 96.670021,350.383942 
	C83.213058,350.778503 69.891609,350.778503 55.316254,350.778503 
	C60.280910,344.654510 64.561996,338.877228 69.353081,333.559418 
	C82.335823,319.149414 96.857674,306.458038 112.964874,295.613373 
	C114.462212,294.605255 115.776588,293.289001 117.912598,294.104645 
	C129.846634,298.661560 140.539673,294.498047 150.733826,288.830048 
	C159.273453,284.082031 166.691727,277.867554 170.508896,268.437286 
	C171.535767,265.900391 173.730942,265.774902 175.685532,265.141968 
	C194.430878,259.071747 213.657379,255.326370 233.651123,253.447906 
z"/>
<path fill="#8283A2" opacity="1.000000" stroke="none" 
	d="
M91.734535,431.784332 
	C94.741585,438.214386 99.039558,443.412872 102.990341,449.195099 
	C94.108681,449.600159 85.154076,449.655823 76.201294,449.814789 
	C74.246147,449.849487 73.180939,448.838867 72.210121,447.388824 
	C69.257286,442.978394 66.327789,438.549683 63.254524,434.223816 
	C61.808666,432.188629 61.496468,430.708221 64.299576,429.811920 
	C64.454155,429.762482 64.580940,429.630249 64.734093,429.571655 
	C68.832718,428.002777 71.751778,423.333069 75.604355,423.004913 
	C79.544144,422.669373 82.335144,427.901093 86.493195,429.337036 
	C88.204071,429.927887 89.814522,430.809570 91.734535,431.784332 
z"/>
<path fill="#9FA1B8" opacity="1.000000" stroke="none" 
	d="
M114.532608,464.850220 
	C114.837082,468.828461 118.416222,470.630585 119.843575,473.639557 
	C120.740738,475.530792 121.891624,477.301697 122.976135,479.469055 
	C114.537033,479.874329 106.050217,479.914673 97.564133,480.016663 
	C95.578812,480.040527 94.016159,479.440491 92.882637,477.757385 
	C90.205414,473.782196 87.497261,469.827820 84.043427,464.750488 
	C94.729179,464.750488 104.401283,464.750488 114.532608,464.850220 
z"/>
<path fill="#EC9200" opacity="1.000000" stroke="none" 
	d="
M366.215210,268.739471 
	C364.207214,266.354523 360.901733,264.008514 362.286835,261.507843 
	C363.772522,258.825653 367.570251,260.557831 370.162231,261.172394 
	C378.810272,263.222839 386.057739,267.823730 391.889801,274.510254 
	C393.245483,276.064545 395.549042,278.153259 394.458496,280.038940 
	C393.209290,282.198975 390.170441,281.118744 388.042725,280.702271 
	C379.667236,279.062866 372.536377,274.967651 366.215210,268.739471 
z"/>
<path fill="#EC9200" opacity="1.000000" stroke="none" 
	d="
M128.574432,272.615814 
	C135.477432,265.973114 143.124069,261.584259 152.439911,260.515686 
	C153.935471,260.344086 155.715546,259.994720 156.626953,261.276886 
	C157.676758,262.753754 156.180771,264.093170 155.341599,265.209869 
	C148.742508,273.991547 139.901199,279.123932 129.113434,280.891418 
	C127.545273,281.148376 125.364754,281.729034 124.407814,280.344025 
	C123.157539,278.534515 125.176704,277.025238 126.074181,275.530548 
	C126.663452,274.549133 127.558945,273.751556 128.574432,272.615814 
z"/>
<path fill="#040302" opacity="1.000000" stroke="none" 
	d="
M179.123047,278.375977 
	C184.923965,274.355011 190.515182,270.564362 197.655151,269.055573 
	C215.369247,266.551575 220.927948,281.011230 216.228699,293.039978 
	C210.075577,308.790222 199.077393,319.729401 183.120758,325.239685 
	C176.815048,327.417206 170.130081,327.401337 164.959366,322.122803 
	C159.609497,316.661407 159.476715,309.956451 161.576508,303.063324 
	C164.638382,293.011810 171.077820,285.322083 179.123047,278.375977 
z"/>
<path fill="#040302" opacity="1.000000" stroke="none" 
	d="
M297.192505,281.583313 
	C300.668121,270.809174 307.002197,267.158997 317.972015,269.222168 
	C332.665680,271.985718 351.354736,290.837952 353.957123,305.521484 
	C356.439941,319.530334 348.417755,328.076843 334.438995,325.886963 
	C317.121277,323.174011 295.008270,299.874481 297.192505,281.583313 
z"/>
<path fill="#050301" opacity="1.000000" stroke="none" 
	d="
M240.707581,321.179596 
	C234.432312,306.924713 234.395050,293.028778 241.351303,279.454559 
	C244.527466,273.256683 249.463120,268.818146 257.019165,268.827423 
	C264.574158,268.836670 269.476868,273.297577 272.671906,279.486084 
	C279.591858,292.889557 279.628479,306.722931 273.634155,320.420990 
	C270.636261,327.271729 265.748474,332.614288 257.603485,332.923798 
	C249.417892,333.234802 244.495621,328.199127 240.707581,321.179596 
z"/>
<path fill="#955955" opacity="1.000000" stroke="none" 
	d="
M199.130447,294.036926 
	C194.203369,301.342987 188.508636,307.253326 180.446762,310.419220 
	C178.920822,311.018494 177.095779,311.939636 175.818817,310.526611 
	C174.725159,309.316467 175.810196,307.611206 176.362656,306.328644 
	C180.535995,296.640503 187.342331,289.428040 196.954407,284.955475 
	C198.613571,284.183502 200.611542,283.084442 202.107315,284.311554 
	C203.878311,285.764435 202.065598,287.703339 201.600723,289.320740 
	C201.153397,290.877136 200.091537,292.256927 199.130447,294.036926 
z"/>
<path fill="#945954" opacity="1.000000" stroke="none" 
	d="
M329.888489,308.266205 
	C322.105865,303.038513 315.999329,296.861450 312.893219,288.185669 
	C312.464996,286.989624 311.465637,285.632111 312.505798,284.447601 
	C313.522766,283.289490 315.087799,283.809418 316.249878,284.283569 
	C326.972198,288.658081 334.438995,296.348877 338.738068,307.042480 
	C340.071716,310.359924 338.645142,311.877350 335.160004,310.789337 
	C333.432861,310.250153 331.846100,309.261292 329.888489,308.266205 
z"/>
<path fill="#EB9100" opacity="1.000000" stroke="none" 
	d="
M251.341309,303.575256 
	C251.062134,297.442078 251.729767,291.904816 254.394058,286.750885 
	C255.942841,283.754852 257.656067,282.874664 259.422546,286.548920 
	C264.018311,296.108337 263.999939,305.697815 259.387665,315.245941 
	C257.957825,318.205933 256.460785,318.523926 254.639938,315.380280 
	C252.582764,311.828552 251.918289,307.955353 251.341309,303.575256 
z"/>
</svg>